<svg width="41" height="41" viewBox="0 0 41 41" fill="none" xmlns="http://www.w3.org/2000/svg">
<g clip-path="url(#clip0_27_655)">
<path d="M31.8146 13.1021C31.5415 12.8372 31.1584 12.7168 30.7834 12.7784C30.4078 12.8397 30.0834 13.0751 29.9091 13.4129C29.3098 14.575 28.5486 15.6429 27.653 16.587C27.7423 15.905 27.7872 15.219 27.7872 14.5311C27.7872 13.2112 27.61 11.8529 27.2603 10.4936C26.1106 6.02857 23.0956 2.25257 18.9888 0.133853C18.6313 -0.0505468 18.2052 -0.0440724 17.8535 0.151118C17.5017 0.346388 17.2713 0.704397 17.2397 1.10485C16.9196 5.16244 14.8257 8.85396 11.4918 11.2352C11.4477 11.267 11.4039 11.2991 11.3601 11.3311C11.2693 11.3973 11.1838 11.46 11.1039 11.5126C11.0914 11.5209 11.079 11.5294 11.0668 11.5381C8.97007 13.0366 7.23998 15.034 6.06339 17.3152C4.86782 19.6355 4.26163 22.1254 4.26163 24.7155C4.26163 26.035 4.43884 27.3933 4.78838 28.7529C6.63298 35.9192 13.094 40.9243 20.5004 40.9243C29.4541 40.9243 36.7383 33.653 36.7383 24.7155C36.7383 20.3082 34.9897 16.1837 31.8146 13.1021Z" fill="#FEA827"/>
<ellipse cx="19.2941" cy="24.0732" rx="4.82353" ry="4.81464" fill="white"/>
</g>
<defs>
<clipPath id="clip0_27_655">
<rect width="41" height="40.9244" fill="white"/>
</clipPath>
</defs>
</svg>
